# xmcd CD database file
#
# Track frame offsets:
#	225
#	3470
#	51396
#	80411
#	118886
#	153755
#	184929
#	233721
#	277551
#
# Disc length: 4225 seconds
#
# Revision: 0
# Processed by: cddbd v1.4PL0 Copyright (c) Steve Scherf et al.
# Submitted via: CDex 1.50beta9
#
DISCID=6a107e09
DTITLE=Doug Riley's B3 Quarter - Con Alma
DYEAR=1996
DGENRE=Jazz
TTITLE0=Introduction
TTITLE1=Con Alma - Dizzy Gillespie
TTITLE2='Round Midnight - Thelonius Monk
TTITLE3=Regrets - Don Grolnick
TTITLE4=Juggin' Around - Gene Ammons
TTITLE5=Child Eyes - Doug Riley
TTITLE6=Three East - John Abererombie
TTITLE7=Dinosaurus - Doug Riley
TTITLE8=Filthy McNasty - Horace Silver
EXTD=YEAR: 1996
EXTT0=
EXTT1=
EXTT2=
EXTT3=
EXTT4=
EXTT5=
EXTT6=
EXTT7=
EXTT8=
PLAYORDER=
